<?xml version="1.0" encoding="UTF-8"?>
<svg id="Layer_1" data-name="Layer 1" xmlns="http://www.w3.org/2000/svg" viewBox="0 0 96 96">
  <defs>
    <style>
      .cls-1 {
        fill: #f7f7fb;
      }
    </style>
  </defs>
  <path class="cls-1" d="M88,40H22.8l14.62-22.32c2.42-3.7,1.39-8.65-2.31-11.08-3.7-2.42-8.66-1.39-11.08,2.31L1.37,43.53s0,0,0,0l-.06.09s-.03.05-.04.08c-.17.27-.33.56-.47.85-.03.06-.06.12-.08.17-.14.32-.27.65-.37.99-.01.04-.02.08-.03.11-.08.29-.15.59-.2.9-.01.08-.03.16-.04.25-.04.34-.07.68-.07,1.03h0c0,.35.03.69.07,1.03.01.08.02.17.04.25.05.31.11.6.2.9.01.04.02.08.03.12.1.34.23.67.37.98.03.06.06.12.09.18.14.29.29.57.46.84.02.03.03.06.05.09l22.72,34.7c1.54,2.34,4.09,3.62,6.7,3.62,1.5,0,3.02-.42,4.38-1.31,3.7-2.42,4.73-7.38,2.31-11.08l-14.62-22.32h65.2c4.42,0,8-3.58,8-8s-3.58-8-8-8Z"/>
</svg>