<?xml version="1.0" encoding="UTF-8"?>
<svg id="Layer_1" xmlns="http://www.w3.org/2000/svg" version="1.1" viewBox="0 0 96 96">
  <!-- Generator: Adobe Illustrator 30.0.0, SVG Export Plug-In . SVG Version: 2.1.1 Build 123)  -->
  <defs>
    <style>
      .st0 {
        fill: #f7f7fb;
      }
    </style>
  </defs>
  <path class="st0" d="M22,47h-12c-5,0-9-4-9-9v-12c0-5,4-9,9-9h12c5,0,9,4,9,9v12c0,5-4,9-9,9ZM10,23c-1.7,0-3,1.3-3,3v12c0,1.7,1.3,3,3,3h12c1.7,0,3-1.3,3-3v-12c0-1.7-1.3-3-3-3h-12Z"/>
  <path class="st0" d="M54,47h-12c-5,0-9-4-9-9v-12c0-5,4-9,9-9h12c5,0,9,4,9,9v12c0,5-4,9-9,9ZM42,23c-1.7,0-3,1.3-3,3v12c0,1.7,1.3,3,3,3h12c1.7,0,3-1.3,3-3v-12c0-1.7-1.3-3-3-3h-12Z"/>
  <path class="st0" d="M86,47h-12c-5,0-9-4-9-9v-12c0-5,4-9,9-9h12c5,0,9,4,9,9v12c0,5-4,9-9,9ZM74,23c-1.7,0-3,1.3-3,3v12c0,1.7,1.3,3,3,3h12c1.7,0,3-1.3,3-3v-12c0-1.7-1.3-3-3-3h-12Z"/>
  <path class="st0" d="M22,79h-12c-5,0-9-4-9-9v-12c0-5,4-9,9-9h12c5,0,9,4,9,9v12c0,5-4,9-9,9ZM10,55c-1.7,0-3,1.3-3,3v12c0,1.7,1.3,3,3,3h12c1.7,0,3-1.3,3-3v-12c0-1.7-1.3-3-3-3h-12Z"/>
  <path class="st0" d="M54,79h-12c-5,0-9-4-9-9v-12c0-5,4-9,9-9h12c5,0,9,4,9,9v12c0,5-4,9-9,9ZM42,55c-1.7,0-3,1.3-3,3v12c0,1.7,1.3,3,3,3h12c1.7,0,3-1.3,3-3v-12c0-1.7-1.3-3-3-3h-12Z"/>
  <path class="st0" d="M86,79h-12c-5,0-9-4-9-9v-12c0-5,4-9,9-9h12c5,0,9,4,9,9v12c0,5-4,9-9,9ZM74,55c-1.7,0-3,1.3-3,3v12c0,1.7,1.3,3,3,3h12c1.7,0,3-1.3,3-3v-12c0-1.7-1.3-3-3-3h-12Z"/>
</svg>