<svg xmlns="http://www.w3.org/2000/svg" viewBox="0 0 6482.47 761.76"><defs><style>.cls-1{fill:none;}</style></defs><g id="Layer_2" data-name="Layer 2"><g id="Layer_5" data-name="Layer 5"><rect class="cls-1" width="6482.47" height="761.76"/><path d="M581.63,451.41q0,119.37-153,119.37H205.09a14.82,14.82,0,0,1-14.65-14.65V205.63A14.82,14.82,0,0,1,205.09,191H423.2q77,0,113.67,28t36.62,84.36v1.63q0,26-14.11,44.49t-29.3,23.33q21.17,6.51,36.36,28.49T581.63,451.41ZM420.76,325.81a29.31,29.31,0,0,0,5.7-17.63,25.93,25.93,0,0,0-5.7-16.82q-5.7-7-16.55-7.06h-72.7v49.38h72.7Q415.06,333.68,420.76,325.81Zm-89.25,98.48v53.17h78.67q12.46,0,18.72-8.41a30.75,30.75,0,0,0,6.24-18.72v-.54a26.05,26.05,0,0,0-6.79-17.91q-6.78-7.59-18.17-7.59Z"/><path d="M679.28,570.78H576.74a11.44,11.44,0,0,1-8.41-3.53c-2.36-2.35-3.53-4.61-3.53-6.78a16.1,16.1,0,0,1,.55-4.88l118.28-346.7Q688.51,191,708,191H858.87q19.53,0,24.42,17.91l118.28,346.7a16.83,16.83,0,0,1,.54,4.88q0,3.25-3.53,6.78a11.44,11.44,0,0,1-8.41,3.53H887.63q-17.37,0-24.42-18.45l-13.56-38H717.26l-13.56,38Q696.64,570.78,679.28,570.78ZM822,408.55,783.46,295.7,744.93,408.55Z"/><path d="M1374.84,205.45V410.08q0,81.44-54.25,121.34t-144.87,39.9q-49.37,0-89.52-12.64t-64-33.08q-49.38-42.5-49.37-91.45a11.33,11.33,0,0,1,3.52-8.33,11.55,11.55,0,0,1,8.41-3.5h122.62q9.77,0,13.57,11.59,10.29,31.6,52.08,31.61,25.5,0,40.42-11.59t14.92-33.19V302.21h-198a14.82,14.82,0,0,1-14.65-14.65V205.63A14.82,14.82,0,0,1,1030.32,191H1360.2a14.21,14.21,0,0,1,10.3,4.29A13.84,13.84,0,0,1,1374.84,205.45Z"/><path d="M2247.81,191h345.07a14.82,14.82,0,0,1,14.65,14.65V288.1a14.82,14.82,0,0,1-14.65,14.65H2379.66v34.73h178a14.8,14.8,0,0,1,14.64,14.65v81.92a14.8,14.8,0,0,1-14.64,14.65h-178V556.13A14.84,14.84,0,0,1,2365,570.78h-117.2a14.82,14.82,0,0,1-14.65-14.65V205.63A14.82,14.82,0,0,1,2247.81,191Z"/><path d="M3031.81,554a13.6,13.6,0,0,1,1.09,6q0,3.8-3.53,7.32a11.46,11.46,0,0,1-8.41,3.53H2897.8q-16.28,0-22.79-13.57l-47.75-107.42h-45.57V556.13A14.82,14.82,0,0,1,2767,570.78H2649.85a14.82,14.82,0,0,1-14.65-14.65V205.63A14.82,14.82,0,0,1,2649.85,191H2860.9q74.34,0,117.74,35.27t43.41,96q0,73.8-57,106.89ZM2781.69,291.9v57.51h67.82q11.92,0,18.45-7.86t6.51-19.81a35.71,35.71,0,0,0-6.24-20.89q-6.24-9-18.72-9Z"/><path d="M3182.64,465h216.48a14.82,14.82,0,0,1,14.65,14.65v76.5a14.82,14.82,0,0,1-14.65,14.65h-342.9a14.82,14.82,0,0,1-14.65-14.65V205.63A14.82,14.82,0,0,1,3056.22,191H3393.7a14.82,14.82,0,0,1,14.64,14.65v76.5a14.82,14.82,0,0,1-14.64,14.65H3182.64V331h181.21a14.8,14.8,0,0,1,14.65,14.64v70.54a14.82,14.82,0,0,1-14.65,14.65H3182.64Z"/><path d="M4181.76,532.21q-53.44,39.12-144.6,39.11t-144.59-39.11q-53.45-39.11-53.44-122.13V205.45a13.8,13.8,0,0,1,4.34-10.18,14.18,14.18,0,0,1,10.31-4.29h113.39a14.24,14.24,0,0,1,10.31,4.27,13.75,13.75,0,0,1,4.34,10.13V417.5q0,21.87,14.92,33.58t40.42,11.73q25.5,0,40.43-11.73t14.92-33.58V205.38a13.71,13.71,0,0,1,4.34-10.13,14.2,14.2,0,0,1,10.31-4.27h113.39a14.22,14.22,0,0,1,10.31,4.29,13.84,13.84,0,0,1,4.34,10.18V410.08Q4235.2,493.12,4181.76,532.21Z"/><path d="M4403.39,465h216.48a14.82,14.82,0,0,1,14.65,14.65v76.5a14.82,14.82,0,0,1-14.65,14.65H4277a14.82,14.82,0,0,1-14.65-14.65V205.63A14.82,14.82,0,0,1,4277,191h337.48a14.82,14.82,0,0,1,14.65,14.65v76.5a14.82,14.82,0,0,1-14.65,14.65H4403.39V331h181.22a14.8,14.8,0,0,1,14.65,14.64v70.54a14.82,14.82,0,0,1-14.65,14.65H4403.39Z"/><path d="M4919.9,191h100.92a14.82,14.82,0,0,1,14.65,14.65v350.5a14.82,14.82,0,0,1-14.65,14.65h-87.35q-13,0-21.7-11.4L4793.49,408.55V556.13a14.82,14.82,0,0,1-14.65,14.65H4677.92a14.82,14.82,0,0,1-14.65-14.65V205.63A14.82,14.82,0,0,1,4677.92,191h87.9q13,0,21.16,10.86l118.28,163.31V205.63A14.8,14.8,0,0,1,4919.9,191Z"/><path d="M5208,339.84v82.08q0,21,14.92,32.32T5262,465.52q24.14,0,35-7.18t18.18-21q7.32-13.85,19.26-13.85h117.19a11.6,11.6,0,0,1,8.41,3.47,11.22,11.22,0,0,1,3.53,8.27q0,49.64-47.75,90.75-23.88,20.29-63.48,32.83T5259,571.32q-53.72,0-97.93-16.13t-71.89-52.9q-27.68-36.77-27.67-90.2V349.67q0-53.43,27.67-90.46,52.08-68.77,174.16-68.77,49.36,0,89,12.55t63.48,32.82q47.74,41.1,47.75,90.75a11.2,11.2,0,0,1-3.53,8.27,11.6,11.6,0,0,1-8.41,3.47H5334.42q-11.94,0-19.26-13.85t-18.18-21q-10.86-7.17-35-7.18t-39.07,11.28Q5208,318.82,5208,339.84Z"/><path d="M5836.83,302.21h-98.21V459.55h98.21a14.8,14.8,0,0,1,14.64,14.65v81.93a14.8,14.8,0,0,1-14.64,14.65h-344a14.82,14.82,0,0,1-14.65-14.65V474.2a14.82,14.82,0,0,1,14.65-14.65h99.29V302.21h-99.29a14.82,14.82,0,0,1-14.65-14.65V205.63A14.82,14.82,0,0,1,5492.84,191h344a14.8,14.8,0,0,1,14.64,14.65v81.93a14.8,14.8,0,0,1-14.64,14.65Z"/><path d="M5969.21,570.78H5866.66a11.46,11.46,0,0,1-8.41-3.53q-3.53-3.53-3.52-6.78a16.16,16.16,0,0,1,.54-4.88l118.28-346.7Q5978.43,191,5998,191h150.83q19.54,0,24.42,17.91l118.28,346.7a16.83,16.83,0,0,1,.54,4.88q0,3.25-3.53,6.78a11.44,11.44,0,0,1-8.41,3.53H6177.55q-17.37,0-24.41-18.45l-13.57-38H6007.19l-13.57,38Q5986.57,570.78,5969.21,570.78ZM6111.9,408.55,6073.38,295.7l-38.52,112.85Z"/><path d="M3826.16,412.39V348.24q0-54.18-27-90.47t-70.87-51.54Q3684.43,191,3624.91,191t-103.33,15.31q-43.83,15.28-70.88,51.68t-27,91.78V412q0,55.39,27,91.79t70.88,51.69q43.82,15.3,103.33,15.3c12.25,0,33.55-.57,39.3-2.58a33.93,33.93,0,0,0,13.53,2.58H3782.5q4.88,0,8.93-4.61c2.71-3.06,2.79-7.11.28-12.15h0l-18-24.34Q3826.17,489.7,3826.16,412.39ZM3584.6,454q-14.89-11.25-14.88-32.23V340q0-21,14.88-32.23t40.31-11.25q25.41,0,40.3,11.51t14.89,32.48v80.82q0,21-14.89,32.48t-40.3,11.51Q3599.47,465.28,3584.6,454Z"/><path d="M1797.49,348.62v64.53q0,54.5-27.13,91T1699.29,556q-43.95,15.35-103.63,15.34T1492,556q-44-15.33-71.08-51.84t-27.12-92.05V349.67q0-79.87,56.15-119.55t145.68-39.68q89.52,0,145.68,39.68T1797.49,348.62Zm-138,81.34c9.63-18.26,14.6-26.34,31.41-26.34V367c-39.61,0-53.59,26.51-63.8,45.87-9.64,18.26-14.6,26.34-31.42,26.34s-21.78-8.08-31.41-26.34C1554,393.51,1540.05,367,1500.44,367v36.62c16.82,0,21.78,8.08,31.42,26.34,10.21,19.36,24.19,45.87,63.8,45.87S1649.26,449.32,1659.47,430Z"/></g></g></svg>